HIERARCHY
ROOT SpineBase
{
  OFFSET 0.000000 0.000000 0.000000
  CHANNELS 6 Xposition Yposition Zposition Zrotation Xrotation Yrotation
  JOINT SpineMid
  {
    OFFSET 0.000000 32.789869 0.000000
    CHANNELS 3 Zrotation Xrotation Yrotation
    JOINT SpineShoulder
    {
      OFFSET -0.581006 24.166402 -0.890200
      CHANNELS 3 Zrotation Xrotation Yrotation
      JOINT Neck
      {
        OFFSET -0.318346 7.922102 -0.676088
        CHANNELS 3 Zrotation Xrotation Yrotation
        JOINT Head
        {
          OFFSET -2.938830 12.691705 5.849105
          CHANNELS 3 Zrotation Xrotation Yrotation
          End Site
          {
            OFFSET 0 0 0
          }
        }
      }
      JOINT ShoulderLeft
      {
        OFFSET -8.943530 -8.433578 -13.609413
        CHANNELS 3 Zrotation Xrotation Yrotation
        JOINT ElbowLeft
        {
          OFFSET 1.009431 -19.166024 21.607923
          CHANNELS 3 Zrotation Xrotation Yrotation
          JOINT WristLeft
          {
            OFFSET -1.921909 -28.007053 10.162501
            CHANNELS 3 Zrotation Xrotation Yrotation
            JOINT HandLeft
            {
              OFFSET 2.841241 -12.956978 -2.882054
              CHANNELS 3 Zrotation Xrotation Yrotation
              JOINT HandTipLeft
              {
                OFFSET -0.539097 -1.084865 -1.098330
                CHANNELS 3 Zrotation Xrotation Yrotation
                End Site
                {
                  OFFSET 0 0 0
                }
              }
              JOINT ThumbLeft
              {
                OFFSET -0.844468 0.873515 -1.152223
                CHANNELS 3 Zrotation Xrotation Yrotation
                End Site
                {
                  OFFSET 0 0 0
                }
              }
            }
          }
        }
      }
      JOINT ShoulderRight
      {
        OFFSET 2.277262 -5.255657 -12.339038
        CHANNELS 3 Zrotation Xrotation Yrotation
        JOINT ElbowRight
        {
          OFFSET 1.767731 -21.132251 -9.504399
          CHANNELS 3 Zrotation Xrotation Yrotation
          JOINT WristRight
          {
            OFFSET -8.185402 -24.770634 -4.585089
            CHANNELS 3 Zrotation Xrotation Yrotation
            JOINT HandRight
            {
              OFFSET -3.603583 -8.996461 -1.860383
              CHANNELS 3 Zrotation Xrotation Yrotation
              JOINT HandTipRight
              {
                OFFSET -2.710848 -5.609377 -2.035267
                CHANNELS 3 Zrotation Xrotation Yrotation
                End Site
                {
                  OFFSET 0 0 0
                }
              }
              JOINT ThumbRight
              {
                OFFSET 2.521762 -3.419285 2.491896
                CHANNELS 3 Zrotation Xrotation Yrotation
                End Site
                {
                  OFFSET 0 0 0
                }
              }
            }
          }
        }
      }
    }
  }
  JOINT HipLeft
  {
    OFFSET -8.337699 -1.197424 2.024892
    CHANNELS 3 Zrotation Xrotation Yrotation
    JOINT KneeLeft
    {
      OFFSET 8.177387 -33.122518 7.089820
      CHANNELS 3 Zrotation Xrotation Yrotation
      JOINT AnkleLeft
      {
        OFFSET 16.538449 -42.117146 -1.165744
        CHANNELS 3 Zrotation Xrotation Yrotation
        JOINT FootLeft
        {
          OFFSET -0.687998 -5.869087 -7.636039
          CHANNELS 3 Zrotation Xrotation Yrotation
          End Site
          {
            OFFSET 0 0 0
          }
        }
      }
    }
  }
  JOINT HipRight
  {
    OFFSET 6.205307 2.364044 -9.314988
    CHANNELS 3 Zrotation Xrotation Yrotation
    JOINT KneeRight
    {
      OFFSET 2.944148 -37.174947 -6.193994
      CHANNELS 3 Zrotation Xrotation Yrotation
      JOINT AnkleRight
      {
        OFFSET 10.865659 -36.873030 2.596752
        CHANNELS 3 Zrotation Xrotation Yrotation
        JOINT FootRight
        {
          OFFSET 0.384340 -3.177212 -13.766251
          CHANNELS 3 Zrotation Xrotation Yrotation
          End Site
          {
            OFFSET 0 0 0
          }
        }
      }
    }
  }
}
MOTION
Frames: 12
Frame Time: 0.033333
94.534598 85.379754 332.066475 -0.000000 0.000000 37.945251 -0.000000 0.000000 -37.945251 -0.000000 0.000000 0.000000 -0.000000 0.000000 0.000000 0.000000 0.000000 0.000000 -0.000000 0.000000 0.000000 -0.000000 0.000000 0.000000 -0.000000 0.000000 0.000000 -0.000000 0.000000 0.000000 0.000000 0.000000 0.000000 0.000000 0.000000 0.000000 -0.000000 0.000000 0.000000 -0.000000 0.000000 0.000000 -0.000000 0.000000 0.000000 -0.000000 0.000000 0.000000 0.000000 0.000000 0.000000 0.000000 0.000000 0.000000 -0.000000 0.000000 -37.945251 -0.000000 0.000000 0.000000 -0.000000 0.000000 0.000000 0.000000 0.000000 0.000000 -0.000000 0.000000 -37.945251 -0.000000 0.000000 0.000000 -0.000000 0.000000 0.000000 0.000000 0.000000 0.000000
94.058925 85.218550 332.075700 -0.251925 -0.017997 37.880495 0.209894 -0.140481 -37.880277 -0.000000 0.000000 0.000000 -0.961881 -0.281162 0.376996 0.000000 0.000000 0.000000 -0.000000 0.000000 0.000000 -0.000000 0.000000 0.000000 -3.138626 -5.274283 -0.613636 3.095286 5.299787 0.325745 0.000000 0.000000 0.000000 0.000000 0.000000 0.000000 2.409633 -2.299158 -1.236843 5.187437 1.589480 -0.094631 -0.519619 -1.532673 0.728178 3.841300 -4.420314 0.196102 0.000000 0.000000 0.000000 0.000000 0.000000 0.000000 0.209894 -0.140481 -37.880277 -0.000000 0.000000 0.000000 0.983362 13.525739 -2.591301 0.000000 0.000000 0.000000 0.209894 -0.140481 -37.880277 -0.000000 0.000000 0.000000 -0.236261 -0.037599 1.020730 0.000000 0.000000 0.000000
93.676796 85.071205 332.060281 -0.406923 0.002570 37.850360 0.319738 -0.251716 -37.849648 -0.000000 0.000000 0.000000 -1.786041 -0.519079 0.698868 0.000000 0.000000 0.000000 -0.000000 0.000000 0.000000 -0.000000 0.000000 0.000000 -6.570711 -11.040993 -1.657621 6.371526 11.156163 0.398962 0.000000 0.000000 0.000000 0.000000 0.000000 0.000000 4.447006 -4.200558 -2.218565 9.301169 3.061346 -0.503818 0.579776 -3.214542 1.453814 5.945686 -7.469511 0.811712 0.000000 0.000000 0.000000 0.000000 0.000000 0.000000 0.932155 -1.419363 -37.719188 -1.198819 0.548850 -0.115787 1.765353 20.819190 -4.111582 0.000000 0.000000 0.000000 1.180051 -0.755965 -37.996421 -0.988353 -0.132294 0.153197 -0.408206 -0.057756 1.765973 0.000000 0.000000 0.000000
93.388213 84.937719 332.020218 -0.465574 0.061506 37.856166 0.329855 -0.334273 -37.854954 -0.000000 0.000000 0.000000 -2.470127 -0.710466 0.966291 0.000000 0.000000 0.000000 -0.000000 0.000000 0.000000 -0.000000 0.000000 0.000000 -10.154237 -16.935655 -3.157426 9.657358 17.218116 0.176322 0.000000 0.000000 0.000000 0.000000 0.000000 0.000000 6.133610 -5.687985 -2.985133 12.317850 4.364489 -1.040309 2.537198 -4.770207 2.176080 6.487420 -9.118382 1.431299 0.000000 0.000000 0.000000 0.000000 0.000000 0.000000 1.100999 -2.021444 -37.700034 -1.642019 0.863070 -0.126698 2.201079 24.573693 -4.890545 0.000000 0.000000 0.000000 1.413518 -1.078105 -38.053856 -1.311729 -0.082372 0.211317 -0.516886 -0.058124 2.238146 0.000000 0.000000 0.000000
93.193175 84.818092 331.955511 -0.428369 0.158652 37.898635 0.240577 -0.388322 -37.897227 -0.000000 0.000000 0.000000 -3.012564 -0.852723 1.180002 0.000000 0.000000 0.000000 -0.000000 0.000000 0.000000 -0.000000 0.000000 0.000000 -13.650810 -22.491661 -5.023777 12.712635 23.015576 -0.301343 0.000000 0.000000 0.000000 0.000000 0.000000 0.000000 7.492544 -6.760367 -3.571826 14.313363 5.490277 -1.571072 4.425529 -5.969078 2.834878 6.253207 -9.773804 1.783434 0.000000 0.000000 0.000000 0.000000 0.000000 0.000000 1.071220 -2.553796 -37.747818 -1.393123 1.730571 0.068480 1.782456 25.512489 -5.281261 0.000000 0.000000 0.000000 1.405677 -1.362752 -38.136323 -0.733732 0.401189 0.412926 -1.349952 -0.384381 2.274864 0.000000 0.000000 0.000000
93.091681 84.712325 331.866161 -0.295710 0.293887 37.977856 0.052251 -0.413622 -37.976909 -0.318927 0.913516 0.012044 -3.095083 -1.855439 1.279345 0.000000 0.000000 0.000000 0.318776 -0.913569 -0.006960 -0.000000 0.000000 0.000000 -16.742103 -27.276330 -7.036071 15.255804 28.088680 -0.891006 0.000000 0.000000 0.000000 0.000000 0.000000 0.000000 8.882446 -8.329703 -3.877184 15.379710 6.453874 -2.013190 5.455550 -6.684399 3.333093 6.077087 -9.856302 1.731431 0.000000 0.000000 0.000000 0.000000 0.000000 0.000000 0.842552 -3.016726 -37.864504 -1.609544 2.222672 0.160818 1.526493 25.021585 -5.009776 0.000000 0.000000 0.000000 1.154652 -1.608684 -38.245453 -0.689912 0.708280 0.480060 -1.466050 -0.437147 2.166061 0.000000 0.000000 0.000000
93.169391 84.595113 331.726951 0.077303 0.512362 38.112511 -0.377061 -0.355411 -38.114026 -0.048766 1.238675 0.046186 -3.733820 -2.331092 1.342281 0.000000 0.000000 0.000000 0.047779 -1.238714 -0.045143 -0.000000 0.000000 0.000000 -19.805023 -33.779724 -10.321035 17.035386 35.124462 -1.174880 0.000000 0.000000 0.000000 0.000000 0.000000 0.000000 9.901021 -9.075480 -4.348277 14.677953 7.701777 -2.107514 4.864418 -6.155691 3.028745 5.416293 -9.442954 1.549038 0.000000 0.000000 0.000000 0.000000 0.000000 0.000000 0.177424 -3.317798 -38.102587 -1.806903 2.643417 0.271185 1.602996 25.147513 -4.929552 0.000000 0.000000 0.000000 0.360826 -1.782349 -38.396578 -0.440018 1.256399 0.533656 -1.497812 -0.500302 1.776822 0.000000 0.000000 0.000000
93.328180 84.520725 331.578830 0.501459 0.750969 38.292638 -0.264695 0.391510 -38.275213 0.219951 0.643976 0.061821 -4.257827 -2.674099 1.353626 0.000000 0.000000 0.000000 -0.273090 -1.537855 -0.088680 -0.000000 0.000000 0.000000 -21.741386 -39.319025 -13.533785 17.196642 41.216462 -0.824280 0.000000 0.000000 0.000000 0.000000 0.000000 0.000000 10.269800 -9.446211 -4.588401 12.850814 8.963123 -2.065789 2.729651 -5.395950 2.652279 6.448941 -8.944894 0.843319 0.000000 0.000000 0.000000 0.000000 0.000000 0.000000 -0.617824 -3.590474 -38.413795 -1.844082 3.338985 0.490551 -0.983094 12.874989 -0.954101 0.000000 0.000000 0.000000 -0.622281 -1.897970 -38.580957 -0.099306 1.839383 0.558444 -1.449815 -0.531590 1.221926 0.000000 0.000000 0.000000
93.509314 84.470985 331.395892 0.891096 1.014456 38.538084 -0.388890 0.374937 -38.511222 0.215659 0.725333 0.080380 -4.463048 -2.806625 1.285062 0.000000 0.000000 0.000000 -0.572287 -1.789656 -0.129555 -0.000000 0.000000 0.000000 -18.583503 -33.465927 -10.028120 15.736269 34.763955 -0.557938 0.000000 0.000000 0.000000 0.000000 0.000000 0.000000 10.085893 -9.076117 -4.617636 11.880317 9.298375 -2.117339 -1.890925 -2.987220 1.556707 8.711574 -10.134785 1.574447 0.000000 0.000000 0.000000 0.000000 0.000000 0.000000 -1.483526 -3.939229 -38.822169 -1.892218 4.113039 0.741015 -1.717037 3.572415 0.832300 0.000000 0.000000 0.000000 -1.638932 -2.044492 -38.829763 0.255891 2.400706 0.561454 -1.154659 -0.787577 -0.322140 0.000000 0.000000 0.000000
93.578744 84.436200 331.300407 1.122428 1.169711 38.701603 -0.508158 0.403701 -38.672366 0.221840 0.777224 0.089614 -4.214547 -2.710878 1.159405 0.000000 0.000000 0.000000 -0.699368 -1.942665 -0.149437 -0.000000 0.000000 0.000000 -20.604770 -32.840860 -9.935673 19.575303 33.998426 -3.688734 0.000000 0.000000 0.000000 0.000000 0.000000 0.000000 9.464880 -8.266381 -4.420280 10.035607 9.433898 -1.998508 -4.326697 -4.280703 2.512980 11.657203 -6.375860 -2.372427 0.000000 0.000000 0.000000 0.000000 0.000000 0.000000 -1.963340 -4.276415 -39.079274 -2.119203 4.688549 0.912979 -1.606465 -3.125893 1.509026 0.000000 0.000000 0.000000 -2.157224 -2.123818 -39.001180 0.404966 2.663082 0.565735 -1.189309 -0.818150 -0.334199 0.000000 0.000000 0.000000
93.607764 84.439015 331.267602 1.280696 1.231877 38.742836 -0.574290 0.435431 -38.712160 0.204252 0.791307 0.092959 -4.008507 -2.445794 1.112279 0.000000 0.000000 0.000000 -0.768960 -2.001512 -0.159302 -0.000000 0.000000 0.000000 -20.412611 -33.014499 -10.003256 19.131590 34.189203 -3.297257 0.000000 0.000000 0.000000 0.000000 0.000000 0.000000 8.530429 -7.031397 -4.081431 8.813286 8.929488 -1.953364 -9.063925 -2.986061 2.218227 15.969730 -7.629041 -1.899774 0.000000 0.000000 0.000000 0.000000 0.000000 0.000000 -2.208449 -4.499137 -39.167088 -2.320672 5.116643 1.036406 -0.975855 -5.660448 1.004945 0.000000 0.000000 0.000000 -2.424192 -2.077376 -39.038495 0.509430 2.732797 0.557094 -0.823155 -0.403173 -1.951000 0.000000 0.000000 0.000000
93.583765 84.484964 331.300929 1.353072 1.190151 38.669450 -0.578098 0.488322 -38.638056 0.155582 0.764922 0.089210 -3.675654 -2.093130 1.062510 0.000000 0.000000 0.000000 -0.756449 -1.973263 -0.156699 -0.000000 0.000000 0.000000 -18.274645 -34.901143 -10.689773 14.909338 36.301992 -0.011715 0.000000 0.000000 0.000000 0.000000 0.000000 0.000000 7.684401 -6.273922 -3.744489 6.462066 9.246857 -1.804171 -12.506823 -0.945252 1.517283 19.347417 -9.425842 -0.479834 0.000000 0.000000 0.000000 0.000000 0.000000 0.000000 -2.215331 -4.599862 -39.096422 -2.481664 5.427573 1.124240 0.008835 -3.503344 -0.572433 0.000000 0.000000 0.000000 -2.395934 -1.902560 -38.949620 0.541613 2.577545 0.534699 -0.662265 -0.350624 -2.670410 0.000000 0.000000 0.000000
